PathFileType	4	(X/Y/Z)	HSS_squat1.trc
DataRate	CameraRate	NumFrames	NumMarkers	Units	OrigDataRate	OrigDataStartFrame	OrigNumFrames
120.0	120.0	4	44	mm	120.0	137	1088
Frame#	Time		R.Shoulder		Offset		L.Shoulder		R.Elbow		R.Wrist.Radial		R.Wrist		R.Hand		L.Elbow		L.Wrist.Radial		L.Wrist		L.Hand		R.Hip		V.Sacral		L.PSIS		L.Hip		R.Thigh.Upper		R.Thigh.Front		R.Thigh.Rear		X.Shell.Lower.Thigh.Right		R.Knee.Lateral		R.Shank.Upper		R.Shank.Front		R.Shank.Rear		X.Shell.Lower.Shank.Right		R.Ankle.Lateral		R.Heel		R.Toe		L.Thigh.Upper		L.Thigh.Front		L.Thigh.Rear		X.Shell.Lower.Thigh.Left		L.Knee.Lateral		L.Shank.Upper		L.Shank.Front		L.Shank.Rear		X.Shell.Lower.Shank.Left		L.Ankle.Lateral		L.Heel		L.Toe		R.Troc		L.Troc		R.PSIS		L.ASIS		R.ASIS
			X1	Y1	Z1	X2	Y2	Z2	X3	Y3	Z3	X4	Y4	Z4	X5	Y5	Z5	X6	Y6	Z6	X7	Y7	Z7	X8	Y8	Z8	X9	Y9	Z9	X10	Y10	Z10	X11	Y11	Z11	X12	Y12	Z12	X13	Y13	Z13	X14	Y14	Z14	X15	Y15	Z15	X16	Y16	Z16	X17	Y17	Z17	X18	Y18	Z18	X19	Y19	Z19	X20	Y20	Z20	X21	Y21	Z21	X22	Y22	Z22	X23	Y23	Z23	X24	Y24	Z24	X25	Y25	Z25	X26	Y26	Z26	X27	Y27	Z27	X28	Y28	Z28	X29	Y29	Z29	X30	Y30	Z30	X31	Y31	Z31	X32	Y32	Z32	X33	Y33	Z33	X34	Y34	Z34	X35	Y35	Z35	X36	Y36	Z36	X37	Y37	Z37	X38	Y38	Z38	X39	Y39	Z39	X40	Y40	Z40	X41	Y41	Z41	X42	Y42	Z42	X43	Y43	Z43	X44	Y44	Z44

137	1.13333	159.97064	1464.08948	-134.00781	-135.26877	1391.28198	-5.56716	-215.66621	1478.92871	-140.40825	195.38547	1094.75256	-111.29164	164.58473	885.06476	-258.54065	230.91417	873.49969	-228.56200	217.93190	804.90631	-281.56223	-269.44012	1114.44775	-123.53882	-290.22961	904.23486	-244.19543	-219.58629	901.75336	-260.19077	-265.97562	831.51959	-287.31406	122.39590	1031.38318	-155.23494	-31.06797	1014.31934	-40.60838	-70.88778	1020.93481	-43.60633	-175.78711	1031.12793	-164.05911	179.45032	696.91016	-189.36623	167.04634	657.20135	-221.36215	190.63084	660.10095	-164.25525	176.14532	625.24133	-190.85445	171.23746	520.17218	-125.43661	234.17746	378.81113	-104.08122	216.15001	332.52658	-131.32430	224.65863	342.15219	-71.31699	221.37828	300.72906	-93.84397	194.74985	72.47192	-81.94429	149.14403	33.14201	-39.38020	199.58896	31.37733	-237.97685	-221.69374	695.73633	-204.99519	-204.02510	644.04034	-223.29813	-238.45160	661.73016	-173.80420	-229.62610	625.59747	-198.97336	-218.08429	509.94958	-128.69241	-276.15344	315.79568	-88.72457	-262.66782	289.83337	-116.47722	-265.37308	276.23401	-57.82371	-271.11823	245.45996	-80.09795	-241.61993	75.55005	-95.98042	-197.95059	34.76132	-41.63989	-241.05882	32.28099	-241.27234	163.86006	883.31586	-169.87708	-213.35928	893.45148	-170.09351	13.65959	1019.46558	-40.99825	-133.12376	996.01501	-230.69438	91.29293	995.10706	-219.04781
138	1.14167	159.98158	1464.09631	-133.98045	-135.24704	1391.25549	-5.53598	-215.65433	1478.91235	-140.35687	195.36421	1094.75244	-111.30602	164.45773	885.09436	-258.61276	230.83003	873.51208	-228.62209	217.81364	804.92572	-281.66931	-269.37225	1114.39575	-123.64474	-289.92505	904.28296	-244.50536	-219.39095	901.88300	-260.55136	-265.58945	831.63165	-287.74585	122.38904	1031.39392	-155.23389	-31.06195	1014.31824	-40.61069	-70.90435	1020.92908	-43.59919	-175.77187	1031.12097	-164.12228	179.44435	696.90607	-189.29733	167.09152	657.20093	-221.32167	190.63638	660.09003	-164.17264	176.14900	625.23682	-190.79120	171.30086	520.16327	-125.38432	234.16859	378.81708	-104.07629	216.15417	332.53488	-131.29834	224.64644	342.14502	-71.28321	221.37717	300.72708	-93.81712	194.74762	72.49042	-81.91900	149.13640	33.14750	-39.36808	199.59215	31.37528	-237.98232	-221.68138	695.72943	-205.03426	-204.02347	644.04175	-223.31599	-238.42102	661.71185	-173.83519	-229.60687	625.61023	-199.01991	-218.08073	509.94965	-128.69797	-276.15189	315.79047	-88.71919	-262.64914	289.83548	-116.49502	-265.36545	276.23187	-57.84610	-271.10904	245.48158	-80.11248	-241.59741	75.54517	-95.98128	-197.94054	34.73887	-41.65561	-241.03438	32.24932	-241.25360	163.88782	883.31842	-169.80925	-213.34077	893.44568	-170.10301	13.66080	1019.47870	-40.97998	-133.09132	996.03613	-230.77083	91.31163	995.09192	-219.02730
139	1.15000	160.00290	1464.10425	-133.92090	-135.23770	1391.24109	-5.48960	-215.64970	1478.92078	-140.31825	195.33511	1094.73425	-111.33448	164.36935	885.13153	-258.67480	230.72104	873.52905	-228.68068	217.70099	804.95172	-281.77591	-269.31195	1114.34961	-123.72255	-289.59698	904.35583	-244.91666	-219.14932	901.99200	-260.65530	-265.25711	831.74573	-288.15131	122.40389	1031.39746	-155.16528	-31.06096	1014.31775	-40.63482	-70.84414	1020.95654	-43.94276	-175.75616	1031.13330	-164.15739	179.44933	696.91113	-189.27060	167.15611	657.21936	-221.26308	190.60419	660.08575	-164.09151	176.18353	625.25024	-190.75189	171.30835	520.16119	-125.33160	234.17601	378.80652	-104.02946	216.15842	332.54135	-131.25140	224.64690	342.15207	-71.22424	221.35153	300.72293	-93.75204	194.72266	72.50320	-81.89281	149.12318	33.15749	-39.34576	199.57111	31.37281	-237.96159	-221.65634	695.74103	-205.04994	-203.98743	644.03717	-223.31381	-238.39455	661.73132	-173.82465	-229.59120	625.60211	-198.99408	-218.05518	509.95251	-128.69589	-276.14941	315.79013	-88.74657	-262.65994	289.83975	-116.49087	-265.36523	276.23734	-57.85554	-271.11420	245.47461	-80.09956	-241.59177	75.56656	-95.99160	-197.92596	34.76245	-41.63729	-241.04735	32.25782	-241.29736	163.91040	883.32068	-169.76982	-213.35187	893.44080	-170.10794	13.67188	1019.47339	-40.99516	-133.05164	996.03180	-230.78822	91.32194	995.09308	-219.04842
140	1.15833	160.01173	1464.11340	-133.87170	-135.24167	1391.22083	-5.45456	-215.64656	1478.91028	-140.26573	195.31682	1094.72620	-111.32260	164.28110	885.15973	-258.71335	230.62360	873.54034	-228.77704	217.59578	804.98804	-281.44266	-269.26727	1114.31689	-123.81503	-289.28653	904.40350	-245.30801	-218.84273	902.06561	-260.83020	-264.88412	831.89539	-288.60767	122.40408	1031.39832	-155.23062	-31.05319	1014.31720	-40.61840	-70.89616	1020.92590	-43.62769	-175.73769	1031.14282	-164.19064	179.47243	696.91052	-189.22589	167.14896	657.19879	-221.21933	190.63222	660.10065	-164.07210	176.19467	625.23767	-190.73201	171.33708	520.15503	-125.31037	234.18135	378.81686	-103.99024	216.18567	332.55313	-131.21980	224.62807	342.15036	-71.17181	221.34871	300.71985	-93.73132	194.69934	72.49377	-81.90240	149.10884	33.15781	-39.35189	199.57410	31.39930	-237.97165	-221.64156	695.73987	-205.05110	-203.95743	644.02667	-223.31041	-238.37766	661.71796	-173.85464	-229.58374	625.59296	-199.00890	-218.04930	509.95209	-128.72144	-276.14404	315.79147	-88.73847	-262.65170	289.83813	-116.53204	-265.36014	276.24075	-57.84930	-271.10794	245.47838	-80.10394	-241.60512	75.55379	-95.96823	-197.93208	34.76313	-41.64016	-241.05794	32.28138	-241.25203	163.92635	883.30963	-169.73042	-213.29500	893.44476	-170.14732	13.66771	1019.48016	-40.99693	-133.04645	996.03284	-230.77335	91.34203	995.08167	-218.99670
